<?xml version="1.0" encoding="utf-8"?>
<!-- Generator: Adobe Illustrator 16.0.4, SVG Export Plug-In . SVG Version: 6.00 Build 0)  -->
<!DOCTYPE svg PUBLIC "-//W3C//DTD SVG 1.1//EN" "http://www.w3.org/Graphics/SVG/1.1/DTD/svg11.dtd">
<svg version="1.1" id="Layer_1" xmlns="http://www.w3.org/2000/svg" xmlns:xlink="http://www.w3.org/1999/xlink" x="0px" y="0px"
	 width="800px" height="600px" viewBox="0 0 800 600" enable-background="new 0 0 800 600" xml:space="preserve">
<rect x="1.189" fill="#191930" width="797.973" height="600"/>
<path opacity="0.3" fill="#6DBCDB" d="M361.001-50.869c-136.675,0-247.866,111.191-247.866,247.866
	c0,136.674,111.191,247.866,247.866,247.866s247.866-111.191,247.866-247.866C608.867,60.323,497.676-50.869,361.001-50.869z
	 M514.187,362.051c-0.56,0.465-1.269,0.752-2.054,0.752c-1.413,0-2.619-0.901-3.062-2.168l-0.012,0.008L420.285,74.101
	c-0.084,0.022-2.128-6.863-2.128-6.863c-75.335,33.781-122.329-37.583-201.936,0l-6.102,66.07
	c102.405-36.965,121.771,31.343,207.768,10.74l15.626,51.893c1.17,3.354,0.815,7.162-1.796,8.302
	c-90.759,28.844-121.074-50.568-227.946-4.812l-5.677,68.133c120.517-39.729,145.587,39.656,258.026,1.627l32.61,103.445
	c1.4,4.828-0.377,10.104-5.225,13.246c-0.038,0.025-0.069,0.085-0.096,0.161C448.169,408.91,406.139,422.2,361.001,422.2
	c-124.372,0-225.202-100.83-225.202-225.202c0-124.374,100.83-225.202,225.202-225.202S586.202,72.624,586.202,196.998
	C586.202,262.203,558.478,320.925,514.187,362.051z"/>
</svg>
