<?xml version="1.0" encoding="utf-8"?>
<!-- Generator: Adobe Illustrator 16.0.4, SVG Export Plug-In . SVG Version: 6.00 Build 0)  -->
<!DOCTYPE svg PUBLIC "-//W3C//DTD SVG 1.1//EN" "http://www.w3.org/Graphics/SVG/1.1/DTD/svg11.dtd">
<svg version="1.1" id="Layer_1" xmlns="http://www.w3.org/2000/svg" xmlns:xlink="http://www.w3.org/1999/xlink" x="0px" y="0px"
	 width="600px" height="200px" viewBox="0 0 600 200" enable-background="new 0 0 600 200" xml:space="preserve">
<g>
	<rect x="59.061" y="118.395" fill="#FFFFFF" width="7.465" height="32.637"/>
	<path fill="#FFFFFF" d="M62.793,101.438c-18.378,0-33.275,14.897-33.275,33.275c0,18.377,14.897,33.273,33.275,33.273
		c18.377,0,33.275-14.896,33.275-33.273C96.068,116.335,81.17,101.438,62.793,101.438z M62.793,160.949
		c-14.49,0-26.235-11.747-26.235-26.236c0-3.169,0.562-6.208,1.591-9.021h7.899c1.748,0.082,2.684,0.986,2.684,2.687V150.7h6.522
		v-22.323c0-6.634-5.471-9.141-9.148-9.207l-4.447-0.001c4.776-6.483,12.462-10.692,21.133-10.692
		c8.672,0,16.357,4.209,21.134,10.692l-4.472,0.001c-3.677,0.066-9.148,2.573-9.148,9.207V150.7h6.522v-22.323
		c0-1.697,0.937-2.604,2.684-2.686h7.922c1.03,2.812,1.593,5.852,1.593,9.021C89.029,149.202,77.283,160.949,62.793,160.949z"/>
	<path fill="#FFFFFF" d="M108.482,118.979c-2.452,2.502-2.458,5.924-2.45,6.241v9.492h6.522l-0.001-9.556
		c-0.002-0.124,0.101-1.116,0.586-1.611c0.292-0.298,0.81-0.45,1.54-0.45h7.031v19.243c-0.019,0.754,0.041,4.205,2.562,6.855
		c1.24,1.305,3.534,2.855,7.417,2.855h7.465v-6.521h-7.465c-1.245,0-2.144-0.271-2.669-0.805c-0.785-0.801-0.791-2.172-0.793-2.172
		l0.003-19.457h10.924v-6.521h-24.476C111.506,116.574,109.558,117.881,108.482,118.979z"/>
	<path fill="#FFFFFF" d="M159.952,131.898v6.521h13.873l-0.001-7.13c0.01-0.662-0.032-6.583-4.249-10.858
		c-2.63-2.666-6.191-4.02-10.582-4.02c-4.629,0-8.225,1.396-10.686,4.146c-3.383,3.777-3.23,8.642-3.135,9.822v8.703
		c0,5.227,2.143,8.275,3.94,9.916c3.402,3.104,7.88,3.509,9.996,3.509c0.589,0,0.995-0.03,1.143-0.045l-0.601-6.496
		c-0.039,0.005-3.897,0.259-6.144-1.788c-1.22-1.111-1.813-2.779-1.813-5.096v-9.057h-1.268l1.25-0.129
		c-0.003-0.03-0.263-3.067,1.518-5.023c1.173-1.288,3.124-1.939,5.796-1.939c3.499,0,5.847,1.246,7.179,3.806
		c1.12,2.155,1.131,4.458,1.131,4.505v0.652H159.952L159.952,131.898z"/>
	<path fill="#FFFFFF" d="M306.975,131.898v6.521h13.873v-7.13c0.012-0.662-0.031-6.583-4.248-10.858
		c-2.631-2.666-6.189-4.02-10.584-4.02c-4.629,0-8.224,1.396-10.686,4.146c-3.382,3.777-3.229,8.642-3.135,9.821v8.704
		c0,5.227,2.144,8.275,3.941,9.916c3.401,3.104,7.88,3.509,9.997,3.509c0.588,0,0.994-0.03,1.145-0.045l-0.604-6.496
		c-0.037,0.007-3.898,0.259-6.145-1.788c-1.219-1.111-1.812-2.779-1.812-5.096v-9.057h-1.419l1.399-0.155
		c-0.004-0.03-0.247-3.021,1.492-4.966c1.17-1.309,3.129-1.973,5.826-1.973c3.498,0,5.85,1.246,7.18,3.807
		c1.117,2.154,1.133,4.458,1.133,4.505v0.651h-7.353V131.898z"/>
	<path fill="#FFFFFF" d="M216.157,116.841c-4.465,0-7.98,1.345-10.445,3.997c-0.192,0.208-0.369,0.421-0.541,0.635
		c-0.188-0.219-0.38-0.437-0.589-0.646c-2.619-2.645-6.152-3.984-10.501-3.984c-4.636,0-8.235,1.385-10.697,4.116
		c-3.321,3.688-3.205,8.386-3.122,9.521v20.979h6.522v-21.117l-0.015-0.309c-0.002-0.028-0.223-2.878,1.49-4.742
		c1.175-1.279,3.133-1.927,5.821-1.927c7.827,0,8.251,6.871,8.257,8.257v19.837h6.522V131.65c0.002-0.178-0.006-0.741-0.093-1.541
		l0.085-0.006c-0.002-0.029-0.128-2.928,1.636-4.826c1.182-1.271,3.089-1.916,5.668-1.916c7.827,0,8.251,6.871,8.257,8.258v5.972
		h6.522v-5.942c0.007-0.658-0.061-6.568-4.278-10.824C224.04,118.182,220.507,116.841,216.157,116.841z"/>
	<path fill="#FFFFFF" d="M255.725,116.628h-20.05v6.522h20.05c0.578,0,3.458,0.218,3.458,4.523c0,1.447-0.309,2.465-0.917,3.023
		c-0.885,0.812-2.415,0.721-2.437,0.722l-0.184-0.021l-11.496,0.002c-3.677,0.064-9.147,2.572-9.147,9.207v10.637h6.522v-10.637
		c0-1.699,0.936-2.604,2.684-2.687h11.114c0.99,0.07,4.504,0.125,7.266-2.336c1.422-1.271,3.119-3.672,3.119-7.91
		C265.706,119.57,259.737,116.628,255.725,116.628z"/>
	<path fill="#FFFFFF" d="M276.883,143.712c-0.801-0.817-0.951-2.228-0.942-2.661l0.003-24.146h-6.522v23.944
		c-0.02,0.771,0.032,4.526,2.725,7.349c1.262,1.319,3.583,2.897,7.469,2.897h7.254v-6.521h-7.254
		C278.361,144.57,277.441,144.282,276.883,143.712z"/>
</g>
<g>
	<path fill="#FFFFFF" d="M43.899,52.105h4.156c0,0.255,0.002,0.456,0.007,0.602c0.004,0.146,0.016,0.365,0.034,0.656
		c0.018,0.292,0.048,0.529,0.089,0.711c0.041,0.183,0.103,0.392,0.185,0.629c0.082,0.237,0.18,0.424,0.294,0.561
		c0.114,0.137,0.264,0.255,0.451,0.355c0.187,0.101,0.394,0.15,0.622,0.15c0.52,0,0.902-0.221,1.148-0.663
		c0.246-0.442,0.369-1.164,0.369-2.167v-9.543h-2.105V38.57h11.676v4.826h-2.01v10.869c0,2.097-0.597,3.771-1.791,5.024
		s-2.857,1.88-4.99,1.88c-1.814,0-3.126-0.497-3.938-1.49l-0.506,1.258h-3.691V52.105z"/>
	<path fill="#FFFFFF" d="M61.18,53.281c0-2.37,0.733-4.202,2.201-5.496c1.467-1.294,3.473-1.941,6.016-1.941
		c2.561,0,4.575,0.647,6.043,1.941c1.467,1.294,2.201,3.126,2.201,5.496c0,1.595-0.349,2.979-1.046,4.156
		c-0.697,1.176-1.664,2.064-2.898,2.666c-1.235,0.602-2.664,0.902-4.286,0.902c-1.623,0-3.051-0.301-4.286-0.902
		c-1.235-0.602-2.201-1.49-2.898-2.666C61.53,56.261,61.18,54.876,61.18,53.281z M67.537,53.309c0,2.288,0.624,3.432,1.873,3.432
		s1.873-1.144,1.873-3.432c0-0.465-0.021-0.859-0.062-1.183c-0.041-0.323-0.121-0.654-0.239-0.991
		c-0.119-0.337-0.31-0.592-0.574-0.766c-0.265-0.173-0.597-0.26-0.998-0.26c-0.401,0-0.734,0.087-0.998,0.26
		c-0.265,0.173-0.456,0.429-0.574,0.766c-0.119,0.337-0.198,0.668-0.239,0.991C67.558,52.45,67.537,52.844,67.537,53.309z"/>
	<path fill="#FFFFFF" d="M87.102,56.59h1.148v4.17h-8.846v-4.17h1.121v-6.234h-1.217v-4.252h7.793L87.102,56.59L87.102,56.59z
		 M86.056,44.319c0.752-0.615,1.128-1.447,1.128-2.495c0-1.03-0.365-1.846-1.094-2.447c-0.729-0.602-1.673-0.902-2.83-0.902
		c-1.112,0-2.021,0.301-2.728,0.902c-0.707,0.602-1.06,1.417-1.06,2.447c0,1.048,0.36,1.88,1.08,2.495
		c0.72,0.615,1.622,0.923,2.707,0.923C84.372,45.242,85.304,44.935,86.056,44.319z"/>
	<path fill="#FFFFFF" d="M98.231,48.236c0.501-0.774,1.173-1.369,2.017-1.784c0.843-0.415,1.802-0.622,2.878-0.622
		c3.008,0,4.512,1.878,4.512,5.633v5.127h1.094v4.17h-7.848v-8.572c0-0.438-0.123-0.797-0.369-1.08
		c-0.246-0.282-0.533-0.424-0.861-0.424c-0.429,0-0.772,0.15-1.032,0.451c-0.26,0.301-0.39,0.666-0.39,1.094v4.361h1.203v4.17
		h-8.996v-4.17h1.135v-6.234h-1.039v-4.252h7.697L98.231,48.236L98.231,48.236z"/>
	<path fill="#FFFFFF" d="M127.256,58.627c-0.501,0.775-1.174,1.365-2.017,1.771c-0.843,0.405-1.803,0.608-2.878,0.608
		c-3.008,0-4.512-1.836-4.512-5.51v-5.141h-1.094v-4.252h7.848v8.668c0,0.483,0.123,0.877,0.369,1.183
		c0.246,0.306,0.533,0.458,0.861,0.458c0.428,0,0.772-0.157,1.032-0.472c0.26-0.315,0.39-0.704,0.39-1.169v-4.416h-1.107v-4.252
		h7.861V56.59h1.039v4.17h-7.793L127.256,58.627L127.256,58.627z"/>
	<path fill="#FFFFFF" d="M146.657,50.355l-0.109-0.287c-0.082-0.191-0.173-0.396-0.273-0.615c-0.101-0.219-0.169-0.351-0.205-0.396
		c-0.173-0.255-0.419-0.465-0.738-0.629c-0.319-0.164-0.634-0.246-0.943-0.246c-0.337,0-0.631,0.089-0.882,0.267
		c-0.251,0.178-0.376,0.426-0.376,0.745c0,0.273,0.137,0.515,0.41,0.725s0.569,0.365,0.889,0.465
		c0.319,0.101,0.692,0.205,1.121,0.314c0.428,0.109,0.706,0.187,0.834,0.232c2.196,0.894,3.295,2.37,3.295,4.43
		c0,1.851-0.474,3.254-1.422,4.211c-0.948,0.957-2.347,1.436-4.197,1.436c-1.896,0-3.3-0.428-4.211-1.285l-0.492,0.916h-2.42
		l0.096-5.168h3.021c0.109,0.629,0.374,1.192,0.793,1.688c0.419,0.497,0.93,0.745,1.531,0.745c0.374,0,0.713-0.091,1.019-0.273
		c0.305-0.182,0.458-0.446,0.458-0.793c0-0.31-0.125-0.576-0.376-0.8c-0.251-0.223-0.574-0.408-0.971-0.554
		c-0.396-0.146-0.836-0.296-1.319-0.451c-0.483-0.155-0.964-0.344-1.442-0.567c-0.479-0.223-0.916-0.49-1.312-0.8
		s-0.72-0.729-0.971-1.258c-0.251-0.528-0.376-1.144-0.376-1.846c0-1.066,0.25-1.962,0.752-2.687
		c0.501-0.725,1.164-1.246,1.989-1.565c0.825-0.319,1.789-0.479,2.892-0.479c0.838,0,1.604,0.075,2.297,0.226
		c0.692,0.15,1.13,0.269,1.312,0.355c0.182,0.087,0.319,0.162,0.41,0.226l0.369-0.656h2.297v4.375L146.657,50.355L146.657,50.355z"
		/>
	<path fill="#FFFFFF" d="M164.635,38.748c0.729,0,1.46,0.06,2.194,0.178c0.733,0.119,1.221,0.214,1.463,0.287
		c0.241,0.073,0.426,0.132,0.554,0.178v4.252c-0.529-0.118-0.966-0.178-1.312-0.178c-0.574,0-0.982,0.194-1.224,0.581
		c-0.242,0.388-0.335,1.073-0.28,2.058h2.447v4.252h-2.352v6.234h1.504v4.17h-9.297v-4.17h1.148v-6.234h-1.148v-4.252h1.135
		c0-0.027-0.009-0.643-0.027-1.846C159.44,40.585,161.171,38.748,164.635,38.748z"/>
	<path fill="#FFFFFF" d="M169.598,53.281c0-2.37,0.733-4.202,2.201-5.496c1.467-1.294,3.473-1.941,6.016-1.941
		c2.561,0,4.575,0.647,6.043,1.941c1.467,1.294,2.201,3.126,2.201,5.496c0,1.595-0.349,2.979-1.046,4.156
		c-0.697,1.176-1.664,2.064-2.898,2.666c-1.235,0.602-2.664,0.902-4.286,0.902c-1.623,0-3.051-0.301-4.286-0.902
		c-1.235-0.602-2.201-1.49-2.898-2.666C169.948,56.261,169.598,54.876,169.598,53.281z M175.955,53.309
		c0,2.288,0.624,3.432,1.873,3.432s1.873-1.144,1.873-3.432c0-0.465-0.021-0.859-0.062-1.183c-0.041-0.323-0.121-0.654-0.239-0.991
		c-0.119-0.337-0.31-0.592-0.574-0.766c-0.265-0.173-0.597-0.26-0.998-0.26c-0.401,0-0.734,0.087-0.998,0.26
		c-0.265,0.173-0.456,0.429-0.574,0.766c-0.119,0.337-0.198,0.668-0.239,0.991C175.976,52.45,175.955,52.844,175.955,53.309z"/>
	<path fill="#FFFFFF" d="M187.782,46.104h7.424v2.229l0.055,0.055c0.446-0.766,1.089-1.362,1.928-1.791
		c0.838-0.428,1.709-0.643,2.611-0.643v5.688l-1.449-0.096c-1.003,0-1.791,0.29-2.365,0.868c-0.574,0.579-0.861,1.42-0.861,2.522
		v1.654h1.873v4.17h-9.215v-4.17h1.08v-6.234h-1.08L187.782,46.104L187.782,46.104z"/>
	<path fill="#FFFFFF" d="M218.174,60.09l-0.506,0.232c-0.337,0.155-0.857,0.308-1.559,0.458c-0.702,0.15-1.417,0.226-2.146,0.226
		c-3.482,0-5.214-1.836-5.195-5.51l0.014-5.141h-1.477v-4.252h1.408v-3.131l6.658-1.436v4.566h2.078v4.252h-2.078l-0.014,4.416
		c0,0.355,0.096,0.682,0.287,0.978s0.542,0.444,1.053,0.444c0.41,0,0.902-0.063,1.477-0.191V60.09z"/>
	<path fill="#FFFFFF" d="M219.651,56.59h1.08V42.549h-1.148v-4.211h7.834v9.898c0.246-0.273,0.403-0.446,0.472-0.52
		c0.068-0.073,0.221-0.226,0.458-0.458c0.237-0.232,0.415-0.39,0.533-0.472c0.118-0.082,0.303-0.2,0.554-0.355
		c0.25-0.155,0.479-0.262,0.684-0.321s0.456-0.116,0.752-0.171s0.604-0.082,0.923-0.082c1.549,0,2.752,0.454,3.609,1.36
		c0.856,0.907,1.285,2.222,1.285,3.944v5.428h1.176v4.17h-7.875v-8.463c-0.009-1.139-0.388-1.709-1.135-1.709
		c-0.921,0-1.381,0.538-1.381,1.613v4.389h1.094v4.17h-8.928L219.651,56.59z"/>
	<path fill="#FFFFFF" d="M242.736,60.008c-1.199-0.665-2.131-1.559-2.796-2.68c-0.666-1.121-0.998-2.352-0.998-3.691
		c0-1.504,0.314-2.841,0.943-4.013c0.629-1.171,1.556-2.096,2.782-2.775c1.226-0.679,2.659-1.019,4.3-1.019
		c1.567,0,2.93,0.335,4.088,1.005c1.157,0.67,2.021,1.552,2.591,2.646c0.569,1.094,0.854,2.324,0.854,3.691
		c0,0.31-0.023,0.634-0.068,0.971c-0.082,0.265-0.144,0.413-0.185,0.444c-0.041,0.032-0.148,0.012-0.321-0.062h-8.23
		c0,0.921,0.216,1.684,0.649,2.29c0.433,0.606,1.023,0.909,1.771,0.909c0.656,0,1.135-0.159,1.436-0.479
		c0.301-0.319,0.46-0.747,0.479-1.285h4.197v3.062c-1.203,0.72-2.386,1.23-3.548,1.531c-1.162,0.301-2.473,0.451-3.931,0.451
		C245.272,61.006,243.934,60.673,242.736,60.008z M245.723,52.188h2.939c0.009-0.319,0.002-0.597-0.021-0.834
		s-0.075-0.503-0.157-0.8c-0.082-0.296-0.232-0.524-0.451-0.684c-0.219-0.159-0.497-0.239-0.834-0.239
		c-0.492,0-0.861,0.221-1.107,0.663c-0.246,0.442-0.369,0.941-0.369,1.497V52.188z"/>
	<path fill="#FFFFFF" d="M263.032,55.852h2.229V43.383h-2.311V38.57h11.348c3.755,0,6.566,0.937,8.436,2.81
		c1.87,1.873,2.804,4.614,2.804,8.224c0,1.486-0.251,2.894-0.753,4.225c-0.501,1.331-1.222,2.514-2.16,3.548
		c-0.938,1.035-2.15,1.857-3.637,2.468c-1.486,0.611-3.148,0.916-4.99,0.916h-10.965L263.032,55.852L263.032,55.852z
		 M273.217,55.852c0.665,0,1.251-0.13,1.757-0.39c0.506-0.26,0.909-0.592,1.21-0.998c0.301-0.405,0.547-0.893,0.738-1.463
		c0.191-0.569,0.321-1.128,0.39-1.675c0.069-0.547,0.103-1.125,0.103-1.736c0-0.629-0.027-1.205-0.082-1.729
		s-0.167-1.073-0.335-1.647c-0.169-0.574-0.395-1.06-0.677-1.456c-0.283-0.396-0.675-0.725-1.176-0.984
		c-0.501-0.26-1.089-0.39-1.764-0.39h-0.643v12.469L273.217,55.852L273.217,55.852z"/>
	<path fill="#FFFFFF" d="M290.656,60.008c-1.198-0.665-2.131-1.559-2.796-2.68s-0.998-2.352-0.998-3.691
		c0-1.504,0.314-2.841,0.943-4.013c0.629-1.171,1.556-2.096,2.782-2.775c1.226-0.679,2.659-1.019,4.3-1.019
		c1.567,0,2.931,0.335,4.088,1.005c1.157,0.67,2.021,1.552,2.591,2.646c0.566,1.094,0.854,2.324,0.854,3.691
		c0,0.31-0.021,0.634-0.068,0.971c-0.082,0.265-0.143,0.413-0.184,0.444c-0.041,0.032-0.148,0.012-0.322-0.062h-8.229
		c0,0.921,0.217,1.684,0.649,2.29s1.023,0.909,1.771,0.909c0.655,0,1.135-0.159,1.436-0.479c0.301-0.319,0.46-0.747,0.479-1.285
		h4.196v3.062c-1.201,0.72-2.384,1.23-3.546,1.531c-1.162,0.301-2.473,0.451-3.931,0.451
		C293.192,61.006,291.854,60.673,290.656,60.008z M293.643,52.188h2.939c0.009-0.319,0.002-0.597-0.021-0.834
		c-0.022-0.237-0.075-0.503-0.157-0.8c-0.082-0.296-0.231-0.524-0.451-0.684c-0.219-0.159-0.496-0.239-0.834-0.239
		c-0.491,0-0.86,0.221-1.106,0.663c-0.246,0.442-0.369,0.941-0.369,1.497L293.643,52.188L293.643,52.188z"/>
	<path fill="#FFFFFF" d="M320.945,46.104v4.252c-0.604,0-1.039,0.087-1.312,0.26c-0.271,0.173-0.486,0.447-0.645,0.82l-3.979,9.324
		h-6.467l-4.375-10.404h-1.013v-4.252h8.806v4.252h-1.244l2.312,5.783l1.791-4.676c0.146-0.392,0.094-0.674-0.156-0.848
		c-0.25-0.173-0.648-0.26-1.195-0.26v-4.252L320.945,46.104L320.945,46.104z"/>
	<path fill="#FFFFFF" d="M344.652,43.396c-0.773,0-1.328,0.178-1.66,0.533c-0.334,0.355-0.5,0.871-0.5,1.545V60.76h-8.283
		l-6.469-12.414v5.482c0,0.748,0.166,1.271,0.5,1.572c0.332,0.301,0.887,0.451,1.66,0.451v4.908h-8.709v-4.908
		c0.42,0,0.771-0.05,1.061-0.15c0.287-0.1,0.506-0.219,0.656-0.355c0.148-0.136,0.264-0.335,0.342-0.595s0.125-0.49,0.146-0.69
		c0.02-0.2,0.025-0.474,0.025-0.82V43.37h-2.146v-4.8h10.049l6.781,13.344v-6.412c0-0.219-0.004-0.383-0.01-0.492
		c-0.004-0.109-0.021-0.267-0.055-0.472c-0.031-0.205-0.094-0.364-0.186-0.479c-0.091-0.114-0.211-0.232-0.361-0.355
		s-0.357-0.207-0.621-0.253c-0.266-0.045-0.574-0.063-0.932-0.055V38.57l8.709,0.014L344.652,43.396L344.652,43.396z"/>
	<path fill="#FFFFFF" d="M345.467,54.635c0.342-0.574,0.795-1.039,1.359-1.395c0.562-0.356,1.195-0.626,1.895-0.813
		c0.697-0.187,1.424-0.28,2.182-0.28c1.332,0,2.498,0.173,3.5,0.52v-0.615c0-1.513-0.961-2.27-2.887-2.27
		c-1.303,0-2.281,0.433-2.938,1.299h-2.395v-4.293l0.916-0.246c0.611-0.155,1.471-0.312,2.57-0.472
		c1.104-0.159,2.144-0.239,3.117-0.239c0.373,0,0.711,0.005,1.012,0.014c0.301,0.009,0.734,0.046,1.309,0.109
		c0.566,0.064,1.072,0.153,1.518,0.267c0.441,0.114,0.92,0.287,1.436,0.52c0.518,0.232,0.943,0.508,1.285,0.827
		c0.344,0.319,0.629,0.731,0.861,1.237c0.231,0.506,0.35,1.073,0.35,1.702v6.084h1.039v4.17h-6.453l-0.684-1.627
		c-0.457,0.593-1.08,1.053-1.873,1.381c-0.793,0.328-1.562,0.492-2.312,0.492c-1.479,0-2.73-0.403-3.768-1.21
		c-1.035-0.807-1.553-1.889-1.553-3.247C344.953,55.847,345.125,55.209,345.467,54.635z M352.008,57.308
		c0.238,0.26,0.559,0.39,0.957,0.39c0.293,0,0.564-0.059,0.82-0.178c0.256-0.118,0.42-0.212,0.492-0.28
		c0.07-0.068,0.127-0.125,0.164-0.171v-2.01l-0.191-0.068c-0.127-0.055-0.305-0.104-0.525-0.15
		c-0.225-0.045-0.436-0.068-0.637-0.068c-0.393,0-0.729,0.157-1.012,0.472s-0.424,0.668-0.424,1.06
		C351.652,56.713,351.771,57.048,352.008,57.308z"/>
	<path fill="#FFFFFF" d="M373.486,60.09l-0.506,0.232c-0.338,0.155-0.855,0.308-1.561,0.458c-0.703,0.15-1.416,0.226-2.146,0.226
		c-3.48,0-5.215-1.836-5.193-5.51l0.014-5.141h-1.479v-4.252h1.408v-3.131l6.656-1.436v4.566h2.078v4.252h-2.078l-0.014,4.416
		c0,0.355,0.096,0.682,0.287,0.978c0.189,0.296,0.543,0.444,1.053,0.444c0.41,0,0.902-0.063,1.479-0.191L373.486,60.09
		L373.486,60.09z"/>
	<path fill="#FFFFFF" d="M383.016,56.59h1.148v4.17h-8.846v-4.17h1.121v-6.234h-1.219v-4.252h7.793L383.016,56.59L383.016,56.59z
		 M381.971,44.319c0.752-0.615,1.127-1.447,1.127-2.495c0-1.03-0.361-1.846-1.094-2.447c-0.729-0.601-1.672-0.902-2.83-0.902
		c-1.109,0-2.021,0.301-2.729,0.902c-0.707,0.602-1.061,1.417-1.061,2.447c0,1.048,0.359,1.88,1.08,2.495
		c0.719,0.615,1.621,0.923,2.707,0.923C380.287,45.242,381.219,44.935,381.971,44.319z"/>
	<path fill="#FFFFFF" d="M385.545,53.281c0-2.37,0.732-4.202,2.201-5.496s3.473-1.941,6.016-1.941c2.562,0,4.576,0.647,6.043,1.941
		c1.471,1.294,2.201,3.126,2.201,5.496c0,1.595-0.35,2.979-1.045,4.156c-0.697,1.176-1.664,2.064-2.898,2.666
		s-2.662,0.902-4.285,0.902c-1.621,0-3.053-0.301-4.285-0.902c-1.234-0.602-2.201-1.49-2.898-2.666
		C385.895,56.261,385.545,54.876,385.545,53.281z M391.902,53.309c0,2.288,0.625,3.432,1.873,3.432c1.25,0,1.873-1.144,1.873-3.432
		c0-0.465-0.021-0.859-0.062-1.183c-0.041-0.323-0.121-0.654-0.24-0.991c-0.115-0.337-0.309-0.592-0.572-0.766
		c-0.266-0.173-0.598-0.26-0.998-0.26s-0.732,0.087-0.998,0.26c-0.266,0.173-0.455,0.429-0.572,0.766
		c-0.119,0.337-0.199,0.668-0.24,0.991C391.924,52.45,391.902,52.844,391.902,53.309z"/>
	<path fill="#FFFFFF" d="M411.48,48.236c0.502-0.774,1.174-1.369,2.018-1.784s1.803-0.622,2.879-0.622
		c3.008,0,4.512,1.878,4.512,5.633v5.127h1.096v4.17h-7.85v-8.572c0-0.438-0.123-0.797-0.369-1.08
		c-0.246-0.282-0.531-0.424-0.859-0.424c-0.432,0-0.771,0.15-1.031,0.451c-0.262,0.301-0.391,0.666-0.391,1.094v4.361h1.201v4.17
		h-8.994v-4.17h1.135v-6.234h-1.039v-4.252h7.697v2.132H411.48z"/>
	<path fill="#FFFFFF" d="M430.635,55.852h2.133V43.396h-2.062V38.57h8.896c0.104,0,0.213,0,0.328,0c0.119,0,0.219,0,0.295,0
		s0.189,0,0.334,0c0.596,0.009,1.188,0.009,1.777,0c0.594-0.009,1.174,0.012,1.744,0.062c0.568,0.05,1.123,0.109,1.66,0.178
		s1.051,0.185,1.537,0.349s0.939,0.36,1.359,0.588c0.418,0.228,0.803,0.524,1.148,0.889c0.346,0.365,0.643,0.777,0.889,1.237
		s0.438,1.01,0.58,1.647c0.143,0.638,0.217,1.345,0.229,2.119c0.02,1.349-0.188,2.514-0.607,3.493
		c-0.424,0.98-1.045,1.757-1.859,2.331c-0.814,0.574-1.764,0.994-2.844,1.258c-1.08,0.265-2.316,0.396-3.713,0.396
		c-0.646,0-1.33-0.045-2.051-0.137v2.871h1.996v4.908h-11.771L430.635,55.852L430.635,55.852z M440.412,48.523h0.561
		c2.068,0,3.104-0.916,3.104-2.748c0-0.82-0.24-1.422-0.727-1.805c-0.482-0.383-1.079-0.574-1.791-0.574h-1.146L440.412,48.523
		L440.412,48.523z"/>
	<path fill="#FFFFFF" d="M452.34,54.635c0.342-0.574,0.795-1.039,1.359-1.395c0.562-0.356,1.193-0.626,1.895-0.813
		c0.697-0.187,1.424-0.28,2.182-0.28c1.332,0,2.497,0.173,3.5,0.52v-0.615c0-1.513-0.963-2.27-2.887-2.27
		c-1.303,0-2.281,0.433-2.938,1.299h-2.395v-4.293l0.916-0.246c0.611-0.155,1.471-0.312,2.57-0.472
		c1.104-0.159,2.143-0.239,3.117-0.239c0.373,0,0.711,0.005,1.012,0.014c0.301,0.009,0.734,0.046,1.307,0.109
		c0.568,0.064,1.074,0.153,1.52,0.267c0.44,0.114,0.92,0.287,1.436,0.52c0.518,0.232,0.943,0.508,1.285,0.827
		c0.342,0.319,0.629,0.731,0.861,1.237c0.23,0.506,0.35,1.073,0.35,1.702v6.084h1.039v4.17h-6.453l-0.684-1.627
		c-0.457,0.593-1.08,1.053-1.873,1.381c-0.793,0.328-1.563,0.492-2.312,0.492c-1.479,0-2.73-0.403-3.768-1.21
		c-1.035-0.807-1.553-1.889-1.553-3.247C451.828,55.847,451.998,55.209,452.34,54.635z M458.881,57.308
		c0.236,0.26,0.559,0.39,0.957,0.39c0.293,0,0.564-0.059,0.82-0.178c0.256-0.118,0.42-0.212,0.492-0.28
		c0.07-0.068,0.127-0.125,0.164-0.171v-2.01l-0.191-0.068c-0.127-0.055-0.305-0.104-0.525-0.15
		c-0.225-0.045-0.436-0.068-0.637-0.068c-0.393,0-0.729,0.157-1.012,0.472s-0.424,0.668-0.424,1.06
		C458.525,56.713,458.645,57.048,458.881,57.308z"/>
	<path fill="#FFFFFF" d="M470.393,46.104h7.426v2.229l0.057,0.055c0.445-0.766,1.088-1.362,1.928-1.791
		c0.838-0.428,1.709-0.643,2.611-0.643v5.688l-1.449-0.096c-1.004,0-1.791,0.29-2.365,0.868c-0.572,0.579-0.859,1.42-0.859,2.522
		v1.654h1.873v4.17h-9.215v-4.17h1.078v-6.234h-1.078v-4.252H470.393z"/>
	<path fill="#FFFFFF" d="M494.223,60.09l-0.506,0.232c-0.336,0.155-0.854,0.308-1.559,0.458c-0.703,0.15-1.418,0.226-2.146,0.226
		c-3.479,0-5.213-1.836-5.193-5.51l0.016-5.141h-1.479v-4.252h1.407v-3.131l6.658-1.436v4.566h2.078v4.252h-2.078l-0.014,4.416
		c0,0.355,0.096,0.682,0.287,0.978c0.189,0.296,0.541,0.444,1.053,0.444c0.41,0,0.902-0.063,1.477-0.191L494.223,60.09
		L494.223,60.09z"/>
	<path fill="#FFFFFF" d="M502.33,60.336l-6.371-9.98h-1.203v-4.252h9.297v4.252h-0.93l2.406,4.197l1.326-2.844
		c0.289-0.629,0.27-1.034-0.068-1.217c-0.186-0.091-0.594-0.137-1.23-0.137v-4.252h7.932v4.252c-0.354,0-0.654,0.037-0.9,0.109
		c-0.246,0.073-0.465,0.21-0.656,0.41c-0.189,0.201-0.334,0.376-0.424,0.526c-0.092,0.15-0.23,0.408-0.424,0.772l-5.168,9.707h3.172
		v4.033h-9.447L502.33,60.336z"/>
</g>
<g>
	<path fill="#FFFFFF" d="M353.055,132.148l-2.531-9.985h1.36l1.188,5.053c0.297,1.244,0.562,2.489,0.739,3.452h0.029
		c0.163-0.993,0.477-2.178,0.815-3.467l1.333-5.038h1.349l1.215,5.067c0.281,1.185,0.548,2.371,0.696,3.422h0.029
		c0.208-1.096,0.487-2.209,0.8-3.452l1.318-5.038h1.317l-2.83,9.986h-1.348l-1.26-5.201c-0.312-1.274-0.521-2.252-0.652-3.26h-0.029
		c-0.178,0.994-0.398,1.971-0.771,3.26l-1.422,5.201H353.055L353.055,132.148z"/>
	<path fill="#FFFFFF" d="M363.835,121.63h1.304v4.476h0.029c0.207-0.371,0.533-0.695,0.934-0.92
		c0.387-0.222,0.847-0.369,1.333-0.369c0.965,0,2.506,0.594,2.506,3.066v4.268h-1.306v-4.118c0-1.155-0.43-2.134-1.659-2.134
		c-0.845,0-1.512,0.594-1.748,1.305c-0.072,0.178-0.089,0.371-0.089,0.623v4.324h-1.304V121.63L363.835,121.63z"/>
	<path fill="#FFFFFF" d="M372.779,128.801c0.027,1.764,1.153,2.489,2.459,2.489c0.934,0,1.497-0.163,1.984-0.371l0.224,0.935
		c-0.459,0.207-1.244,0.443-2.388,0.443c-2.207,0-3.523-1.452-3.523-3.615c0-2.164,1.271-3.867,3.363-3.867
		c2.341,0,2.963,2.062,2.963,3.379c0,0.268-0.029,0.475-0.045,0.606L372.779,128.801L372.779,128.801z M376.602,127.868
		c0.017-0.83-0.341-2.119-1.808-2.119c-1.318,0-1.896,1.215-2,2.119H376.602z"/>
	<path fill="#FFFFFF" d="M379.473,126.919c0-0.741-0.016-1.349-0.06-1.94h1.155l0.072,1.186h0.029
		c0.356-0.684,1.188-1.35,2.371-1.35c0.992,0,2.533,0.595,2.533,3.054v4.28h-1.305v-4.133c0-1.156-0.431-2.119-1.658-2.119
		c-0.859,0-1.526,0.606-1.748,1.332c-0.062,0.164-0.089,0.387-0.089,0.607v4.312h-1.306v-5.229H379.473z"/>
	<path fill="#FFFFFF" d="M387.38,126.164c0-0.548,0.37-0.934,0.889-0.934c0.521,0,0.859,0.385,0.874,0.934
		c0,0.52-0.341,0.918-0.889,0.918C387.735,127.082,387.38,126.682,387.38,126.164z M387.38,131.395c0-0.549,0.37-0.934,0.889-0.934
		c0.521,0,0.859,0.385,0.874,0.934c0,0.52-0.341,0.918-0.889,0.918C387.735,132.312,387.38,131.912,387.38,131.395z"/>
	<path fill="#FFFFFF" d="M395.229,123.26h-3.035v-1.097h7.394v1.097h-3.053v8.891h-1.304L395.229,123.26L395.229,123.26z"/>
	<path fill="#FFFFFF" d="M405.982,130.193c0,0.742,0.015,1.394,0.06,1.957h-1.156l-0.073-1.17h-0.028
		c-0.341,0.578-1.097,1.332-2.37,1.332c-1.126,0-2.477-0.623-2.477-3.142v-4.192h1.306v3.972c0,1.362,0.415,2.282,1.601,2.282
		c0.874,0,1.481-0.607,1.719-1.188c0.074-0.191,0.118-0.43,0.118-0.667v-4.399h1.306v5.215H405.982z"/>
	<path fill="#FFFFFF" d="M408.868,128.801c0.029,1.764,1.155,2.489,2.46,2.489c0.933,0,1.496-0.163,1.984-0.371l0.223,0.935
		c-0.459,0.207-1.244,0.443-2.386,0.443c-2.207,0-3.525-1.452-3.525-3.615c0-2.164,1.273-3.867,3.363-3.867
		c2.341,0,2.963,2.062,2.963,3.379c0,0.268-0.029,0.475-0.045,0.606L408.868,128.801L408.868,128.801z M412.69,127.868
		c0.015-0.83-0.343-2.119-1.81-2.119c-1.316,0-1.896,1.215-2,2.119H412.69z"/>
	<path fill="#FFFFFF" d="M415.383,130.816c0.386,0.252,1.067,0.519,1.719,0.519c0.948,0,1.396-0.474,1.396-1.067
		c0-0.621-0.371-0.963-1.334-1.316c-1.289-0.459-1.896-1.17-1.896-2.03c0-1.155,0.936-2.104,2.477-2.104
		c0.726,0,1.362,0.207,1.763,0.443l-0.326,0.948c-0.279-0.179-0.8-0.415-1.467-0.415c-0.77,0-1.199,0.443-1.199,0.979
		c0,0.594,0.432,0.858,1.362,1.215c1.245,0.475,1.882,1.098,1.882,2.164c0,1.26-0.978,2.147-2.682,2.147
		c-0.785,0-1.512-0.192-2.017-0.489L415.383,130.816z"/>
	<path fill="#FFFFFF" d="M427.618,121.63v8.667c0,0.637,0.016,1.363,0.06,1.852h-1.17l-0.06-1.243h-0.03
		c-0.399,0.8-1.273,1.407-2.444,1.407c-1.731,0-3.064-1.467-3.064-3.646c-0.018-2.385,1.467-3.853,3.215-3.853
		c1.097,0,1.837,0.52,2.163,1.097h0.029v-4.282L427.618,121.63L427.618,121.63z M426.314,127.896c0-0.162-0.017-0.386-0.061-0.547
		c-0.191-0.83-0.904-1.513-1.882-1.513c-1.349,0-2.148,1.187-2.148,2.771c0,1.451,0.711,2.651,2.118,2.651
		c0.875,0,1.675-0.577,1.912-1.556c0.044-0.178,0.061-0.355,0.061-0.562V127.896z"/>
	<path fill="#FFFFFF" d="M433.748,132.148l-0.104-0.903H433.6c-0.398,0.563-1.171,1.067-2.191,1.067
		c-1.451,0-2.192-1.022-2.192-2.062c0-1.731,1.541-2.683,4.312-2.667v-0.146c0-0.595-0.163-1.66-1.63-1.66
		c-0.667,0-1.363,0.207-1.867,0.533l-0.296-0.858c0.593-0.386,1.45-0.638,2.354-0.638c2.193,0,2.729,1.498,2.729,2.935v2.683
		c0,0.622,0.027,1.229,0.116,1.719h-1.186V132.148L433.748,132.148z M433.555,128.49c-1.422-0.03-3.037,0.222-3.037,1.615
		c0,0.844,0.563,1.244,1.229,1.244c0.934,0,1.526-0.594,1.734-1.201c0.044-0.133,0.071-0.281,0.071-0.414L433.555,128.49
		L433.555,128.49z"/>
	<path fill="#FFFFFF" d="M437.271,124.979l1.568,4.237c0.163,0.474,0.341,1.037,0.46,1.468h0.029
		c0.133-0.431,0.281-0.979,0.459-1.498l1.423-4.207h1.378l-1.956,5.11c-0.934,2.459-1.568,3.72-2.459,4.489
		c-0.638,0.562-1.272,0.786-1.601,0.845l-0.326-1.096c0.326-0.104,0.756-0.312,1.141-0.638c0.356-0.281,0.803-0.784,1.099-1.451
		c0.06-0.133,0.104-0.237,0.104-0.312c0-0.072-0.029-0.178-0.089-0.341l-2.651-6.606H437.271L437.271,124.979z"/>
	<path fill="#FFFFFF" d="M447.044,132.148v-6.179h-1.008v-0.991h1.008v-0.343c0-1.008,0.223-1.926,0.83-2.504
		c0.488-0.474,1.141-0.667,1.748-0.667c0.459,0,0.859,0.104,1.111,0.208l-0.18,1.009c-0.19-0.091-0.46-0.164-0.83-0.164
		c-1.109,0-1.393,0.979-1.393,2.073v0.386h1.733v0.992h-1.733v6.18H447.044L447.044,132.148z"/>
	<path fill="#FFFFFF" d="M451.235,127.216c0-0.845-0.018-1.571-0.062-2.237h1.143l0.045,1.407h0.059
		c0.326-0.963,1.111-1.569,1.985-1.569c0.146,0,0.252,0.016,0.371,0.043v1.229c-0.136-0.028-0.269-0.044-0.445-0.044
		c-0.918,0-1.57,0.697-1.748,1.674c-0.029,0.178-0.06,0.385-0.06,0.607v3.822h-1.288V127.216z"/>
	<path fill="#FFFFFF" d="M462.419,128.504c0,2.652-1.837,3.809-3.571,3.809c-1.938,0-3.437-1.422-3.437-3.688
		c0-2.399,1.57-3.81,3.556-3.81C461.026,124.814,462.419,126.312,462.419,128.504z M456.729,128.579c0,1.571,0.903,2.756,2.18,2.756
		c1.245,0,2.178-1.17,2.178-2.786c0-1.215-0.605-2.755-2.146-2.755C457.396,125.793,456.729,127.216,456.729,128.579z"/>
	<path fill="#FFFFFF" d="M464.06,126.919c0-0.741-0.016-1.349-0.06-1.94h1.141l0.062,1.154h0.044
		c0.398-0.681,1.066-1.318,2.252-1.318c0.979,0,1.719,0.595,2.03,1.438h0.027c0.225-0.399,0.504-0.711,0.803-0.935
		c0.43-0.324,0.901-0.504,1.585-0.504c0.946,0,2.354,0.623,2.354,3.111v4.223h-1.271v-4.06c0-1.378-0.506-2.208-1.559-2.208
		c-0.74,0-1.316,0.549-1.54,1.186c-0.06,0.179-0.104,0.414-0.104,0.651v4.431h-1.273v-4.297c0-1.142-0.504-1.971-1.497-1.971
		c-0.812,0-1.407,0.652-1.613,1.305c-0.073,0.191-0.104,0.414-0.104,0.638v4.325h-1.273v-5.229L464.06,126.919L464.06,126.919z"/>
	<path fill="#FFFFFF" d="M479.889,131.23c0.282,0.028,0.608,0,1.055-0.043c0.755-0.104,1.467-0.416,2.015-0.936
		c0.637-0.578,1.097-1.422,1.274-2.562h-0.047c-0.531,0.651-1.304,1.037-2.267,1.037c-1.733,0-2.845-1.305-2.845-2.949
		c0-1.821,1.316-3.422,3.289-3.422c1.971,0,3.186,1.601,3.186,4.061c0,2.119-0.711,3.6-1.659,4.52
		c-0.739,0.727-1.764,1.17-2.801,1.289c-0.474,0.073-0.889,0.088-1.2,0.073V131.23z M480.363,125.689
		c0,1.199,0.726,2.045,1.852,2.045c0.875,0,1.559-0.43,1.896-1.008c0.072-0.119,0.119-0.269,0.119-0.476
		c0-1.646-0.607-2.903-1.973-2.903C481.148,123.35,480.363,124.326,480.363,125.689z"/>
	<path fill="#FFFFFF" d="M486.834,126.164c0-0.548,0.37-0.934,0.889-0.934c0.521,0,0.859,0.385,0.874,0.934
		c0,0.52-0.341,0.918-0.889,0.918C487.189,127.082,486.834,126.682,486.834,126.164z M486.834,131.395
		c0-0.549,0.37-0.934,0.889-0.934c0.521,0,0.859,0.385,0.874,0.934c0,0.52-0.341,0.918-0.889,0.918
		C487.189,132.312,486.834,131.912,486.834,131.395z"/>
	<path fill="#FFFFFF" d="M496.196,127.23c0,3.272-1.215,5.082-3.351,5.082c-1.882,0-3.153-1.765-3.186-4.949
		c0-3.23,1.393-5.008,3.349-5.008C495.041,122.355,496.196,124.164,496.196,127.23z M490.966,127.378
		c0,2.504,0.771,3.927,1.956,3.927c1.333,0,1.971-1.557,1.971-4.016c0-2.371-0.605-3.926-1.954-3.926
		C491.796,123.363,490.966,124.756,490.966,127.378z"/>
	<path fill="#FFFFFF" d="M503.793,127.23c0,3.272-1.215,5.082-3.349,5.082c-1.882,0-3.155-1.765-3.188-4.949
		c0-3.23,1.395-5.008,3.351-5.008C502.638,122.355,503.793,124.164,503.793,127.23z M498.562,127.378
		c0,2.504,0.771,3.927,1.954,3.927c1.333,0,1.973-1.557,1.973-4.016c0-2.371-0.607-3.926-1.956-3.926
		C499.393,123.363,498.562,124.756,498.562,127.378z"/>
	<path fill="#FFFFFF" d="M505.448,122.282c0.622-0.104,1.438-0.192,2.475-0.192c1.274,0,2.207,0.296,2.8,0.83
		c0.551,0.475,0.874,1.2,0.874,2.089c0,0.904-0.267,1.615-0.771,2.134c-0.683,0.728-1.792,1.098-3.052,1.098
		c-0.387,0-0.741-0.016-1.037-0.09v4h-1.289V122.282z M506.737,127.098c0.279,0.073,0.637,0.104,1.064,0.104
		c1.558,0,2.504-0.757,2.504-2.134c0-1.318-0.933-1.957-2.354-1.957c-0.562,0-0.992,0.046-1.215,0.104V127.098z"/>
	<path fill="#FFFFFF" d="M521.564,127.764c-0.074-1.393-0.163-3.065-0.148-4.312h-0.045c-0.34,1.17-0.755,2.415-1.259,3.793
		l-1.766,4.845h-0.978l-1.615-4.756c-0.474-1.407-0.874-2.695-1.155-3.882h-0.027c-0.03,1.245-0.104,2.919-0.193,4.416l-0.267,4.282
		h-1.229l0.696-9.986h1.645l1.704,4.83c0.415,1.23,0.756,2.326,1.008,3.363h0.044c0.254-1.008,0.607-2.104,1.054-3.363l1.776-4.83
		h1.646l0.622,9.986h-1.259L521.564,127.764z"/>
	<path fill="#FFFFFF" d="M528.122,127.66v0.963h-3.66v-0.963H528.122z"/>
	<path fill="#FFFFFF" d="M535.2,123.734h-0.03l-1.674,0.904l-0.252-0.994l2.104-1.125h1.111v9.629H535.2V123.734z"/>
	<path fill="#FFFFFF" d="M539.967,132.148v-0.799l1.022-0.994c2.459-2.34,3.568-3.584,3.585-5.037c0-0.979-0.476-1.881-1.911-1.881
		c-0.874,0-1.603,0.442-2.045,0.813l-0.415-0.919c0.667-0.562,1.615-0.979,2.727-0.979c2.074,0,2.948,1.422,2.948,2.801
		c0,1.777-1.289,3.215-3.318,5.171l-0.771,0.711v0.028h4.326v1.082h-6.148V132.148z"/>
	<path fill="#FFFFFF" d="M547.667,126.164c0-0.548,0.37-0.934,0.889-0.934c0.521,0,0.859,0.385,0.874,0.934
		c0,0.52-0.341,0.918-0.889,0.918C548.021,127.082,547.667,126.682,547.667,126.164z M547.667,131.395
		c0-0.549,0.37-0.934,0.889-0.934c0.521,0,0.859,0.385,0.874,0.934c0,0.52-0.341,0.918-0.889,0.918
		C548.021,132.312,547.667,131.912,547.667,131.395z"/>
	<path fill="#FFFFFF" d="M557.028,127.23c0,3.272-1.216,5.082-3.351,5.082c-1.882,0-3.153-1.765-3.186-4.949
		c0-3.23,1.393-5.008,3.349-5.008C555.873,122.355,557.028,124.164,557.028,127.23z M551.798,127.378
		c0,2.504,0.771,3.927,1.956,3.927c1.333,0,1.971-1.557,1.971-4.016c0-2.371-0.605-3.926-1.956-3.926
		C552.628,123.363,551.798,124.756,551.798,127.378z"/>
	<path fill="#FFFFFF" d="M564.625,127.23c0,3.272-1.215,5.082-3.349,5.082c-1.884,0-3.155-1.765-3.188-4.949
		c0-3.23,1.395-5.008,3.351-5.008C563.47,122.355,564.625,124.164,564.625,127.23z M559.395,127.378
		c0,2.504,0.771,3.927,1.956,3.927c1.333,0,1.973-1.557,1.973-4.016c0-2.371-0.607-3.926-1.956-3.926
		C560.225,123.363,559.395,124.756,559.395,127.378z"/>
	<path fill="#FFFFFF" d="M567.896,129.008l-1.037,3.141h-1.334l3.394-9.984h1.556l3.407,9.984h-1.378l-1.064-3.141H567.896z
		 M571.17,128.001l-0.979-2.875c-0.224-0.651-0.37-1.245-0.521-1.821h-0.029c-0.146,0.592-0.312,1.199-0.504,1.807l-0.978,2.891
		L571.17,128.001L571.17,128.001z"/>
	<path fill="#FFFFFF" d="M583.7,127.764c-0.074-1.393-0.163-3.065-0.148-4.312h-0.045c-0.341,1.17-0.755,2.415-1.259,3.793
		l-1.764,4.845h-0.979l-1.615-4.756c-0.474-1.407-0.874-2.695-1.153-3.882h-0.029c-0.03,1.245-0.104,2.919-0.193,4.416l-0.267,4.282
		h-1.229l0.696-9.986h1.646l1.703,4.83c0.415,1.23,0.757,2.326,1.009,3.363h0.044c0.252-1.008,0.605-2.104,1.052-3.363l1.778-4.83
		h1.645l0.622,9.986h-1.259L583.7,127.764z"/>
	<path fill="#FFFFFF" d="M353.055,149.92l-2.531-9.986h1.36l1.188,5.053c0.297,1.244,0.562,2.49,0.739,3.453h0.029
		c0.163-0.994,0.477-2.179,0.815-3.467l1.333-5.039h1.349l1.215,5.067c0.281,1.185,0.548,2.371,0.696,3.422h0.029
		c0.208-1.096,0.487-2.208,0.8-3.452l1.318-5.037h1.317l-2.83,9.985h-1.348l-1.26-5.201c-0.312-1.274-0.521-2.252-0.652-3.259
		h-0.029c-0.178,0.993-0.398,1.971-0.771,3.259l-1.422,5.201L353.055,149.92L353.055,149.92z"/>
	<path fill="#FFFFFF" d="M363.835,139.4h1.304v4.475h0.029c0.207-0.371,0.533-0.695,0.934-0.919c0.387-0.222,0.847-0.37,1.333-0.37
		c0.965,0,2.506,0.594,2.506,3.066v4.268h-1.306v-4.119c0-1.154-0.43-2.133-1.659-2.133c-0.845,0-1.512,0.593-1.748,1.305
		c-0.072,0.178-0.089,0.37-0.089,0.622v4.326h-1.304V139.4L363.835,139.4z"/>
	<path fill="#FFFFFF" d="M372.779,146.57c0.027,1.764,1.153,2.49,2.459,2.49c0.934,0,1.497-0.164,1.984-0.371l0.224,0.934
		c-0.459,0.208-1.244,0.443-2.388,0.443c-2.207,0-3.523-1.451-3.523-3.614c0-2.164,1.271-3.867,3.363-3.867
		c2.341,0,2.963,2.06,2.963,3.378c0,0.268-0.029,0.475-0.045,0.607H372.779L372.779,146.57z M376.602,145.639
		c0.017-0.83-0.341-2.119-1.808-2.119c-1.318,0-1.896,1.215-2,2.119H376.602z"/>
	<path fill="#FFFFFF" d="M379.473,144.986c0-0.846-0.016-1.571-0.06-2.237h1.141l0.045,1.407h0.061
		c0.326-0.963,1.109-1.57,1.983-1.57c0.148,0,0.252,0.016,0.371,0.044v1.229c-0.134-0.029-0.267-0.045-0.443-0.045
		c-0.918,0-1.57,0.696-1.748,1.675c-0.029,0.178-0.061,0.385-0.061,0.605v3.823h-1.289V144.986L379.473,144.986z"/>
	<path fill="#FFFFFF" d="M384.893,146.57c0.029,1.764,1.155,2.49,2.459,2.49c0.936,0,1.497-0.164,1.986-0.371l0.222,0.934
		c-0.459,0.208-1.242,0.443-2.386,0.443c-2.207,0-3.523-1.451-3.523-3.614c0-2.164,1.271-3.867,3.361-3.867
		c2.343,0,2.963,2.06,2.963,3.378c0,0.268-0.027,0.475-0.045,0.607H384.893L384.893,146.57z M388.715,145.639
		c0.017-0.83-0.341-2.119-1.808-2.119c-1.318,0-1.896,1.215-2,2.119H388.715z"/>
	<path fill="#FFFFFF" d="M391.274,143.934c0-0.548,0.368-0.934,0.889-0.934c0.519,0,0.859,0.385,0.874,0.934
		c0,0.521-0.341,0.918-0.889,0.918C391.63,144.854,391.274,144.453,391.274,143.934z M391.274,149.164
		c0-0.548,0.368-0.934,0.889-0.934c0.519,0,0.859,0.386,0.874,0.934c0,0.52-0.341,0.919-0.889,0.919
		C391.63,150.083,391.274,149.684,391.274,149.164z"/>
	<path fill="#FFFFFF" d="M403.124,141.386h-3.674l-0.37,2.474c0.222-0.027,0.429-0.059,0.785-0.059c0.74,0,1.479,0.163,2.074,0.52
		c0.755,0.431,1.378,1.26,1.378,2.475c0,1.882-1.497,3.29-3.586,3.29c-1.054,0-1.94-0.296-2.4-0.593l0.326-0.993
		c0.398,0.235,1.186,0.533,2.06,0.533c1.229,0,2.281-0.802,2.281-2.091c-0.015-1.243-0.844-2.133-2.771-2.133
		c-0.548,0-0.978,0.061-1.333,0.104l0.622-4.623h4.607L403.124,141.386L403.124,141.386z"/>
	<path fill="#FFFFFF" d="M409.002,149.92v-2.623h-4.474v-0.859l4.296-6.146h1.408v5.984h1.348v1.021h-1.348v2.623H409.002
		L409.002,149.92z M409.002,146.275v-3.215c0-0.504,0.016-1.01,0.045-1.513h-0.045c-0.296,0.562-0.533,0.979-0.8,1.422l-2.355,3.274
		v0.027h3.155V146.275z"/>
	<path fill="#FFFFFF" d="M418.97,145.001c0,3.274-1.215,5.082-3.349,5.082c-1.882,0-3.155-1.763-3.188-4.949
		c0-3.229,1.395-5.008,3.351-5.008C417.814,140.126,418.97,141.934,418.97,145.001z M413.739,145.148
		c0,2.504,0.771,3.927,1.956,3.927c1.333,0,1.971-1.556,1.971-4.015c0-2.371-0.607-3.928-1.956-3.928
		C414.569,141.134,413.739,142.525,413.739,145.148z"/>
	<path fill="#FFFFFF" d="M425.053,139.934v4.178h4.83v-4.178h1.304v9.986h-1.304v-4.682h-4.83v4.682h-1.289v-9.986H425.053z"/>
	<path fill="#FFFFFF" d="M439.864,146.275c0,2.65-1.837,3.808-3.571,3.808c-1.94,0-3.437-1.422-3.437-3.688
		c0-2.399,1.568-3.809,3.556-3.809C438.472,142.586,439.864,144.083,439.864,146.275z M434.175,146.35
		c0,1.57,0.903,2.756,2.178,2.756c1.245,0,2.18-1.17,2.18-2.787c0-1.215-0.607-2.754-2.148-2.754S434.175,144.986,434.175,146.35z"
		/>
	<path fill="#FFFFFF" d="M441.92,142.749l0.948,3.646c0.207,0.799,0.397,1.541,0.533,2.281h0.044
		c0.163-0.726,0.398-1.496,0.638-2.267l1.17-3.66h1.097l1.111,3.585c0.267,0.859,0.474,1.615,0.637,2.341h0.045
		c0.118-0.726,0.312-1.481,0.55-2.325l1.021-3.601h1.289l-2.312,7.171h-1.188l-1.096-3.422c-0.252-0.8-0.46-1.512-0.64-2.355h-0.027
		c-0.18,0.858-0.4,1.601-0.652,2.371l-1.155,3.407h-1.186l-2.163-7.171L441.92,142.749L441.92,142.749z"/>
	<path fill="#FFFFFF" d="M456.212,149.92l-0.104-0.904h-0.044c-0.4,0.563-1.173,1.067-2.193,1.067c-1.451,0-2.192-1.022-2.192-2.06
		c0-1.733,1.541-2.684,4.312-2.668v-0.147c0-0.593-0.163-1.66-1.63-1.66c-0.667,0-1.363,0.208-1.867,0.534l-0.296-0.859
		c0.593-0.385,1.452-0.637,2.354-0.637c2.193,0,2.729,1.497,2.729,2.934v2.684c0,0.623,0.027,1.229,0.118,1.719L456.212,149.92
		L456.212,149.92z M456.019,146.26c-1.422-0.029-3.035,0.223-3.035,1.615c0,0.844,0.562,1.244,1.229,1.244
		c0.935,0,1.526-0.592,1.734-1.2c0.044-0.134,0.071-0.282,0.071-0.415L456.019,146.26L456.019,146.26z"/>
	<path fill="#FFFFFF" d="M459.379,144.986c0-0.846-0.016-1.571-0.06-2.237h1.141l0.045,1.407h0.061
		c0.324-0.963,1.109-1.57,1.983-1.57c0.148,0,0.252,0.016,0.371,0.044v1.229c-0.134-0.029-0.267-0.045-0.445-0.045
		c-0.918,0-1.568,0.696-1.748,1.675c-0.027,0.178-0.059,0.385-0.059,0.605v3.823h-1.289V144.986L459.379,144.986z"/>
	<path fill="#FFFFFF" d="M470.266,139.4v8.666c0,0.638,0.018,1.363,0.062,1.853h-1.171l-0.061-1.245h-0.028
		c-0.399,0.801-1.273,1.408-2.444,1.408c-1.733,0-3.066-1.467-3.066-3.645c-0.016-2.387,1.469-3.854,3.217-3.854
		c1.097,0,1.837,0.52,2.161,1.098h0.029V139.4H470.266z M468.962,145.667c0-0.163-0.015-0.385-0.059-0.548
		c-0.193-0.83-0.904-1.512-1.882-1.512c-1.351,0-2.148,1.186-2.148,2.771c0,1.452,0.711,2.652,2.118,2.652
		c0.875,0,1.675-0.578,1.912-1.558c0.044-0.178,0.059-0.354,0.059-0.562V145.667z"/>
	<path fill="#FFFFFF" d="M475.432,148.35c0.578,0.355,1.422,0.652,2.312,0.652c1.318,0,2.089-0.695,2.089-1.704
		c0-0.933-0.533-1.467-1.882-1.985c-1.63-0.578-2.637-1.422-2.637-2.83c0-1.556,1.289-2.711,3.229-2.711
		c1.022,0,1.764,0.237,2.208,0.489l-0.354,1.052c-0.326-0.178-0.993-0.474-1.896-0.474c-1.363,0-1.882,0.815-1.882,1.497
		c0,0.934,0.605,1.393,1.985,1.926c1.688,0.652,2.548,1.467,2.548,2.934c0,1.541-1.143,2.875-3.496,2.875
		c-0.963,0-2.018-0.28-2.549-0.637L475.432,148.35z"/>
	<path fill="#FFFFFF" d="M484.392,140.689v2.06h1.866v0.993h-1.866v3.867c0,0.889,0.252,1.393,0.979,1.393
		c0.341,0,0.593-0.044,0.756-0.089l0.061,0.978c-0.253,0.104-0.651,0.178-1.155,0.178c-0.607,0-1.099-0.19-1.407-0.547
		c-0.37-0.386-0.504-1.021-0.504-1.867v-3.91h-1.111v-0.993h1.111v-1.719L484.392,140.689z"/>
	<path fill="#FFFFFF" d="M487.723,144.986c0-0.846-0.016-1.571-0.06-2.237h1.141l0.045,1.407h0.061
		c0.326-0.963,1.109-1.57,1.983-1.57c0.148,0,0.252,0.016,0.371,0.044v1.229c-0.134-0.029-0.267-0.045-0.443-0.045
		c-0.918,0-1.57,0.696-1.748,1.675c-0.029,0.178-0.061,0.385-0.061,0.605v3.823h-1.289V144.986L487.723,144.986z"/>
	<path fill="#FFFFFF" d="M493.143,146.57c0.029,1.764,1.155,2.49,2.459,2.49c0.936,0,1.497-0.164,1.986-0.371l0.222,0.934
		c-0.459,0.208-1.242,0.443-2.386,0.443c-2.207,0-3.523-1.451-3.523-3.614c0-2.164,1.271-3.867,3.361-3.867
		c2.343,0,2.963,2.06,2.963,3.378c0,0.268-0.027,0.475-0.045,0.607H493.143L493.143,146.57z M496.965,145.639
		c0.017-0.83-0.341-2.119-1.808-2.119c-1.318,0-1.896,1.215-2,2.119H496.965z"/>
	<path fill="#FFFFFF" d="M500.562,146.57c0.027,1.764,1.153,2.49,2.459,2.49c0.934,0,1.495-0.164,1.984-0.371l0.222,0.934
		c-0.459,0.208-1.242,0.443-2.386,0.443c-2.207,0-3.523-1.451-3.523-3.614c0-2.164,1.271-3.867,3.361-3.867
		c2.343,0,2.964,2.06,2.964,3.378c0,0.268-0.028,0.475-0.046,0.607H500.562L500.562,146.57z M504.385,145.639
		c0.017-0.83-0.341-2.119-1.808-2.119c-1.318,0-1.896,1.215-2,2.119H504.385z"/>
	<path fill="#FFFFFF" d="M508.826,140.689v2.06h1.866v0.993h-1.866v3.867c0,0.889,0.252,1.393,0.978,1.393
		c0.341,0,0.593-0.044,0.756-0.089l0.062,0.978c-0.252,0.104-0.652,0.178-1.156,0.178c-0.605,0-1.097-0.19-1.407-0.547
		c-0.37-0.386-0.504-1.021-0.504-1.867v-3.91h-1.109v-0.993h1.109v-1.719L508.826,140.689z"/>
</g>
</svg>
