<?xml version="1.0" encoding="utf-8"?>
<!-- Generator: Adobe Illustrator 16.0.4, SVG Export Plug-In . SVG Version: 6.00 Build 0)  -->
<!DOCTYPE svg PUBLIC "-//W3C//DTD SVG 1.1//EN" "http://www.w3.org/Graphics/SVG/1.1/DTD/svg11.dtd">
<svg version="1.1" id="Layer_1" xmlns="http://www.w3.org/2000/svg" xmlns:xlink="http://www.w3.org/1999/xlink" x="0px" y="0px"
	 width="346px" height="340px" viewBox="0 0 346 340" enable-background="new 0 0 346 340" xml:space="preserve">
<path fill="#435363" d="M342.088,272.704h-0.147l-2.685-4.11v5.81h-1.087v-7.585h1.159l2.709,4.161l2.684-4.161h1.135v7.585h-1.061
	v-5.81L342.088,272.704z M334.06,274.404h-1.085v-6.55h-2.438v-1.035h5.959v1.035h-2.435v6.55H334.06z"/>
<g>
	<path fill="#435363" d="M0.144,301.641v-0.212c0-21.204,15.981-38.569,38.891-38.569c14.064,0,22.483,4.688,29.408,11.505
		l-10.441,12.041c-5.754-5.22-11.615-8.417-19.072-8.417c-12.574,0-21.631,10.444-21.631,23.229v0.212
		c0,12.785,8.844,23.443,21.631,23.443c8.523,0,13.744-3.411,19.605-8.738l10.44,10.55c-7.673,8.204-16.195,13.317-30.58,13.317
		C16.446,340,0.144,323.06,0.144,301.641"/>
</g>
<g>
	<polygon fill="#435363" points="90.451,264.136 106.857,264.136 106.857,293.65 137.118,293.65 137.118,264.136 153.528,264.136 
		153.528,338.722 137.118,338.722 137.118,308.779 106.857,308.779 106.857,338.722 90.451,338.722 	"/>
</g>
<g>
	<polygon fill="#435363" points="179.929,264.156 237.084,264.156 237.084,278.986 196.491,278.986 196.491,294.357 
		232.213,294.357 232.213,309.188 196.491,309.188 196.491,325.1 237.625,325.1 237.625,339.93 179.929,339.93 	"/>
</g>
<g>
	<polygon fill="#435363" points="261.518,264.136 318.307,264.136 318.307,279.053 277.923,279.053 277.923,294.929 
		313.513,294.929 313.513,309.846 277.923,309.846 277.923,338.722 261.518,338.722 	"/>
</g>
<g>
	<path fill="#435363" d="M161.496,158.964c-27.219,0-49.364-22.144-49.364-49.363c0-27.222,22.145-49.366,49.364-49.366
		c22.468,0,41.463,15.091,47.417,35.665h19.102c-6.356-30.898-33.764-54.207-66.518-54.207c-37.444,0-67.906,30.462-67.906,67.908
		c0,37.444,30.464,67.907,67.906,67.907c32.754,0,60.162-23.308,66.518-54.208h-19.102
		C202.958,143.874,183.964,158.964,161.496,158.964"/>
</g>
<g>
	<path fill="#435363" d="M128.22,142.876c8.525,8.524,20.294,13.807,33.276,13.807v-19.682c-7.567,0-14.416-3.067-19.375-8.026
		L128.22,142.876z"/>
</g>
<g>
	<path fill="#F38B00" d="M114.413,109.601c0,6.738,1.435,13.146,3.996,18.947l18.005-7.917c-1.487-3.375-2.318-7.105-2.318-11.03
		c0-15.133,12.267-27.4,27.401-27.4V62.519C135.534,62.519,114.413,83.639,114.413,109.601"/>
</g>
<g>
	<path fill="#435363" d="M178.566,65.726l-7.137,18.351c5.829,2.271,10.693,6.469,13.79,11.824h21.317
		C202.326,82.083,191.92,70.939,178.566,65.726"/>
</g>
<g>
	<path fill="#F38B00" d="M171.429,135.125l7.137,18.351c13.354-5.215,23.76-16.358,27.971-30.175h-21.316
		C182.121,128.656,177.258,132.855,171.429,135.125"/>
</g>
<g>
	<path fill="#435363" d="M74.392,135.937c-0.313-1.03-0.606-2.069-0.885-3.113c-0.016-0.064-0.032-0.127-0.049-0.193
		c-0.254-0.965-0.491-1.937-0.715-2.913c-0.045-0.2-0.087-0.399-0.13-0.598c-0.187-0.839-0.36-1.683-0.524-2.528
		c-0.07-0.376-0.134-0.754-0.2-1.131c-0.122-0.675-0.237-1.352-0.343-2.031c-0.09-0.58-0.166-1.16-0.244-1.742
		c-0.534-3.969-0.823-8.003-0.819-12.088H51.893c-0.006,4.456,0.275,8.855,0.798,13.197H52.69c0.01,0.096,0.027,0.188,0.039,0.284
		c0.146,1.182,0.306,2.361,0.49,3.533c0.051,0.324,0.109,0.644,0.163,0.968c0.161,0.963,0.327,1.923,0.512,2.878
		c0.097,0.51,0.205,1.013,0.312,1.519c0.158,0.762,0.318,1.523,0.492,2.279c0.154,0.665,0.319,1.326,0.486,1.987
		c0.149,0.59,0.296,1.184,0.452,1.771c0.211,0.784,0.435,1.559,0.662,2.334c0.096,0.324,0.18,0.653,0.278,0.975l0.01-0.002
		c1.283,4.247,2.805,8.391,4.572,12.404l17.038-7.493C76.726,142.901,75.46,139.461,74.392,135.937z"/>
</g>
<g>
	<path fill="#F38B00" d="M161.496,200.615c-25.095,0-47.838-10.218-64.315-26.7l-13.17,13.172
		c19.833,19.834,47.22,32.112,77.486,32.112c55.891,0,102.005-41.834,108.749-95.9h-18.766
		C244.854,167.009,207.025,200.615,161.496,200.615"/>
</g>
<g>
	<path fill="#F38B00" d="M161.496,18.586c20.385,0,39.219,6.739,54.407,18.104l11.14-14.929C208.76,8.097,186.072,0,161.496,0
		C114.989,0,75.252,28.971,59.337,69.849l17.344,6.748C89.921,42.679,122.945,18.586,161.496,18.586"/>
</g>
<g>
	<path fill="#435363" d="M251.479,95.9h18.766c-2.012-16.13-7.529-31.168-15.764-44.335l-15.802,9.861
		C245.131,71.726,249.582,83.399,251.479,95.9"/>
</g>
<g>
	<path fill="#F38B00" d="M230.34,95.9h18.826c-4.912-31.569-26.531-57.67-55.5-68.98l-6.727,17.289
		C208.973,52.81,225.636,72.219,230.34,95.9"/>
</g>
<g>
	<path fill="#435363" d="M161.496,39.41h0.002V20.87h-0.002c-37.583,0-69.778,23.488-82.687,56.555l17.279,6.724
		C106.298,57.991,131.765,39.41,161.496,39.41"/>
</g>
<g>
	<path fill="#F38B00" d="M91.305,109.601L91.305,109.601l-18.541-0.001v0.001c0,37.287,23.125,69.26,55.779,82.368l6.883-17.211
		C109.598,164.387,91.305,139.097,91.305,109.601"/>
</g>
<g>
	<path fill="#435363" d="M161.496,179.79v18.542c44.268,0,81.067-32.587,87.672-75.033h-18.83
		C223.949,155.469,195.514,179.79,161.496,179.79"/>
</g>
</svg>
